<?xml version="1.0" encoding="UTF-8" standalone="no"?>
<!-- Created with Inkscape (http://www.inkscape.org/) -->

<svg
   xmlns:dc="http://purl.org/dc/elements/1.1/"
   xmlns:cc="http://creativecommons.org/ns#"
   xmlns:rdf="http://www.w3.org/1999/02/22-rdf-syntax-ns#"
   xmlns:svg="http://www.w3.org/2000/svg"
   xmlns="http://www.w3.org/2000/svg"
   xmlns:sodipodi="http://sodipodi.sourceforge.net/DTD/sodipodi-0.dtd"
   xmlns:inkscape="http://www.inkscape.org/namespaces/inkscape"
   width="301"
   height="90"
   viewBox="0 0 301 90"
   id="svg4660"
   version="1.1"
   inkscape:version="0.91 r13725"
   sodipodi:docname="logo-grey.svg">
  <defs
     id="defs4662" />
  <sodipodi:namedview
     id="base"
     pagecolor="#ffffff"
     bordercolor="#666666"
     borderopacity="1.0"
     inkscape:pageopacity="0.0"
     inkscape:pageshadow="2"
     inkscape:zoom="0.9899495"
     inkscape:cx="22.602854"
     inkscape:cy="-65.279986"
     inkscape:document-units="px"
     inkscape:current-layer="g4322"
     showgrid="false"
     units="cm"
     inkscape:window-width="1570"
     inkscape:window-height="740"
     inkscape:window-x="46"
     inkscape:window-y="2"
     inkscape:window-maximized="0" />
  <metadata
     id="metadata4665">
    <rdf:RDF>
      <cc:Work
         rdf:about="">
        <dc:format>image/svg+xml</dc:format>
        <dc:type
           rdf:resource="http://purl.org/dc/dcmitype/StillImage" />
        <dc:title></dc:title>
      </cc:Work>
    </rdf:RDF>
  </metadata>
  <g
     inkscape:label="Layer 1"
     inkscape:groupmode="layer"
     id="layer1"
     transform="translate(0,-962.36221)">
    <g
       id="g4322"
       transform="matrix(0.31460422,0,0,-0.31460422,-28.452508,1094.5987)">
      <g
         id="g4250"
         transform="translate(6.3571938,-6.3571938)">
        <g
           style="fill:#000000;fill-opacity:0.37349399"
           id="g4324">
          <path
             d="m 825.6175,327.1467 c 2.1849,0 4.3169,-0.5595 6.4017,-1.6784 2.079,-1.125 3.7044,-2.7269 4.8646,-4.8174 1.1602,-2.0849 1.743,-4.2639 1.743,-6.5313 0,-2.2439 -0.5712,-4.3994 -1.7195,-6.4664 -1.1426,-2.0733 -2.7504,-3.6808 -4.8115,-4.8235 -2.0673,-1.1486 -4.2228,-1.7197 -6.4783,-1.7197 -2.2555,0 -4.417,0.5711 -6.4783,1.7197 -2.067,1.1427 -3.6749,2.7502 -4.8235,4.8235 -1.1542,2.067 -1.7254,4.2225 -1.7254,6.4664 0,2.2674 0.5831,4.4464 1.7493,6.5313 1.1658,2.0905 2.7915,3.6924 4.8761,4.8174 2.0789,1.1189 4.2168,1.6784 6.4018,1.6784 z m 0,-2.1554 c -1.8315,0 -3.6102,-0.4711 -5.3416,-1.4077 -1.7314,-0.9363 -3.0861,-2.2791 -4.0638,-4.0164 -0.9774,-1.7433 -1.4663,-3.5572 -1.4663,-5.4476 0,-1.8729 0.483,-3.6692 1.4428,-5.3887 0.9601,-1.7198 2.3029,-3.0626 4.0283,-4.0224 1.7257,-0.9601 3.5218,-1.4431 5.4006,-1.4431 1.8728,0 3.6748,0.483 5.4005,1.4431 1.7255,0.9598 3.0623,2.3026 4.0165,4.0224 0.9541,1.7195 1.4312,3.5158 1.4312,5.3887 0,1.8904 -0.4831,3.7043 -1.4548,5.4476 -0.9717,1.7373 -2.3264,3.0801 -4.0637,4.0164 -1.7374,0.9366 -3.5158,1.4077 -5.3297,1.4077 z m -5.7127,-18.0627 0,14.0049 4.8115,0 c 1.649,0 2.8387,-0.1236 3.5748,-0.383 0.7362,-0.2591 1.3193,-0.7123 1.7612,-1.3544 0.4357,-0.6477 0.6537,-1.3311 0.6537,-2.0554 0,-1.0247 -0.3654,-1.9139 -1.0956,-2.6736 -0.7302,-0.7597 -1.702,-1.1838 -2.9092,-1.2782 0.4946,-0.206 0.8951,-0.4532 1.1897,-0.7421 0.5652,-0.5536 1.2543,-1.4779 2.0729,-2.7796 l 1.7079,-2.7386 -2.7621,0 -1.2427,2.2085 c -0.9776,1.7314 -1.7609,2.821 -2.3615,3.2567 -0.4122,0.324 -1.0188,0.4831 -1.8139,0.4831 l -1.3252,0 0,-5.9483 -2.2615,0 z m 2.2615,7.8801 2.7445,0 c 1.3073,0 2.2025,0.2001 2.6796,0.5887 0.4771,0.3886 0.7186,0.9071 0.7186,1.5548 0,0.4125 -0.1179,0.7832 -0.3476,1.1132 -0.2296,0.324 -0.5476,0.5712 -0.9541,0.7302 -0.4122,0.165 -1.1662,0.2415 -2.2731,0.2415 l -2.5679,0 0,-4.2284 z"
             style="fill:#00a300;fill-opacity:1;fill-rule:evenodd;stroke:none"
             id="path4326"
             inkscape:connector-curvature="0" />
          <path
             d="m 143.2409,242.9382 c 1.8887,-23.2991 -15.2742,-21.3511 -30.1057,-13.9224 -3.7913,0.946 -11.7887,-8.2754 -16.1804,-10.47 -3.367,-11.1336 51.567,-23.8244 64.7368,19.8102 10.6172,35.1763 -29.0826,26.4677 -39.5136,47.2938 -11.8961,23.8207 18.3422,25.6402 30.9343,18.0853 4.5008,0 10.2089,6.0579 14.2775,8.0912 5.4564,7.0954 -48.8735,22.2276 -63.8566,-11.7646 -16.7806,-38.0707 33.569,-32.6007 39.7077,-57.1235"
             style="fill:#00a300;fill-opacity:1;fill-rule:evenodd;stroke:none"
             id="path4328"
             inkscape:connector-curvature="0" />
          <path
             d="m 363.7145,240.683 c -3.8854,0.2851 -35.6088,67.8594 -43.3085,79.2337 -5.8927,0 -11.1385,-0.466 -16.9011,-1.4284 -5.75,-34.4338 -8.0365,-69.5647 -12.3755,-104.2268 0,-4.284 15.3715,-4.2834 19.0375,-4.2834 3.0467,15.6818 3.7191,59.8663 7.3531,75.268 7.1181,-14.6984 25.2799,-45.8773 36.936,-70.0622 4.1241,-2.2833 8.2483,-2.3502 12.3735,-0.2018 15.5959,22.2542 27.8428,46.9281 40.9022,68.7639 1.3403,1.3879 4.4592,-58.3435 5.7102,-72.339 l 19.5125,0.9508 c -0.8268,35.4523 -5.8028,72.6236 -7.6138,108.0345 -5.3935,0 -10.7881,0 -16.1816,0 -9.6684,-29.0168 -31.9348,-52.7204 -45.4445,-79.7093"
             style="fill:#00a300;fill-opacity:1;fill-rule:evenodd;stroke:none"
             id="path4330"
             inkscape:connector-curvature="0" />
          <path
             d="m 215.4594,270.4198 c 3.9546,7.9277 8.6908,18.1817 14.2776,24.7493 4.4521,-6.6385 9.089,-17.7486 11.4222,-23.3203 -2.3171,-1.0055 -23.1792,-1.9883 -25.6998,-1.429 z m 9.9933,49.0204 C 205.6793,282.352 180.9037,249.1483 161.68,212.0822 l 19.0357,-0.6752 c 10.5668,16.5949 19.8431,32.9417 27.605,47.5915 9.307,-0.7234 25.0364,1.1792 37.5967,1.4272 8.2366,-16.4256 16.0665,-33.054 24.2722,-49.4952 2.9118,-1.9428 18.1511,-0.5941 19.9747,2.5946 -16.46,38.2376 -31.6605,67.9436 -48.0535,106.3131 -2.7386,1.3714 -12.8353,1.1849 -16.6581,-0.398"
             style="fill:#00a300;fill-opacity:1;fill-rule:evenodd;stroke:none"
             id="path4332"
             inkscape:connector-curvature="0" />
          <path
             d="m 777.0467,319.4402 c -1.8114,-36.2563 -2.3797,-72.6936 -2.3797,-108.9865 6.9545,0 14.0221,1.1362 20.9401,1.9041 1.838,35.2391 1.3286,72.9603 2.3794,108.5068 -6.9693,0 -14.0227,-0.559 -20.9398,-1.4244"
             style="fill:#00a300;fill-opacity:1;fill-rule:evenodd;stroke:none"
             id="path4334"
             inkscape:connector-curvature="0" />
          <path
             d="m 694.2362,270.4198 0.4748,0.9525 c 4.2704,8.5317 10.008,16.2022 14.2778,24.7475 4.0743,-8.1255 7.3596,-17.062 11.4222,-25.1968 l -26.1748,-0.5032 z m -104.2271,-7.6136 -2.376,47.6518 c 31.6454,-5.9414 28.5497,-37.1752 2.376,-47.6518 z m -31.8864,56.634 -0.4765,-9.0428 0.4765,-0.4751 8.0983,0 c -0.286,-31.513 -0.0161,-62.852 -2.8632,-94.2324 l 11.4216,-4.2829 9.995,0.9508 c 0.6553,2.6209 -0.2322,36.919 0.4748,41.8824 0.1165,0.5018 0.8852,0.5023 0.9521,0 -0.2381,-11.3071 37.8607,-35.2587 49.972,-45.6891 2.1586,0 3.0376,1.5171 4.7599,2.3794 l 18.5604,0.4765 c 9.9522,14.9168 15.0826,34.0591 28.0786,47.1164 9.4751,0.498 28.8247,1.4553 37.4587,0.3311 8.1502,-16.3097 15.7865,-31.1378 23.9352,-47.4475 l 0.4768,-0.9533 0.4768,-0.4756 c 5.5,0 13.3359,2.891 19.5126,3.3313 l 0,0.9521 -0.4768,1.9038 c -11.9438,35.89 -38.7808,67.1315 -48.068,104.227 -5.5491,0 -11.1078,-0.6437 -16.6569,-0.9521 -15.4324,-30.8106 -37.4936,-64.5732 -56.6351,-93.2805 -4.0119,0.8353 -35.3874,28.3969 -39.5008,32.3637 -0.6999,0.4762 -0.7004,0.9521 0,1.4272 70.0098,51.9786 -21.5739,70.6986 -49.972,59.4896"
             style="fill:#00a300;fill-opacity:1;fill-rule:evenodd;stroke:none"
             id="path4336"
             inkscape:connector-curvature="0" />
          <path
             d="m 441.9969,317.0614 -0.4748,-0.4757 c 0,-37.3107 3.2281,-100.9826 49.4952,-106.132 52.2133,0 57.5028,58.4204 64.2493,98.9932 l 1.4272,8.566 c -6.376,0.5789 -12.6403,1.859 -18.8379,3.4104 -1.8984,-0.5301 -2.6915,-1.7994 -2.3794,-3.8078 -3.1726,-22.1754 -2.3131,-77.1579 -23.0429,-90.9802 -48.4007,-20.8482 -48.2,73.1169 -49.4951,95.1854 -6.5773,0 -14.1248,-3.7876 -20.9416,-4.7593"
             style="fill:#00a300;fill-opacity:1;fill-rule:evenodd;stroke:none"
             id="path4338"
             inkscape:connector-curvature="0" />
        </g>
        <g
           style="fill:#000000;fill-opacity:0.37349399"
           id="g4340">
          <g
             style="fill:#00a300;fill-opacity:1"
             id="g4342">
            <path
               d="m 456.558,165.3024 c -3.8872,5.2764 7.8054,14.0751 9.0464,4.0206 -2.5168,-1.256 -6.3728,-3.13 -9.0464,-4.0206 z m 13.8551,-10.1313 c 0.2452,0.7214 0.3515,1.364 -0.4819,1.4479 -5.2755,-1.8901 -13.3732,-3.0002 -13.3732,5.7886 3.721,1.7 11.8301,4.701 14.9567,6.7547 0,6.3391 -7.6612,10.7161 -13.1806,8.2349 -16.5279,-7.4282 -4.0155,-38.3207 12.079,-22.2261"
               style="fill:#00a300;fill-opacity:1;fill-rule:evenodd;stroke:none"
               id="path4344"
               inkscape:connector-curvature="0" />
            <path
               d="m 520.2448,191.776 -0.003,-0.9049 3.4183,-0.8331 -1.0063,-40.1737 5.7883,0.4816 0.4831,6.755 0.2576,5.9289 c 0.1625,3.7403 0.3096,11.8032 6.3859,10.2079 7.7525,-2.0364 3.2012,-16.6119 2.0401,-22.4088 l 0,-1.4468 c 2.8945,0.1608 5.7898,0.3215 8.6851,0.4822 0.7497,0.8045 0.9099,1.6087 0.4816,2.4114 l -2.9597,0.009 0.5483,1.9211 c 1.4011,7.0256 4.2893,17.6595 -2.1833,22.5402 -5.4034,4.0748 -9.0422,0.0496 -12.7735,-2.7604 l 0,16.8854 c 0,0.8048 0,1.6093 0,2.4132 -2.942,0.3863 -6.0208,-0.3132 -9.1621,-1.5083"
               style="fill:#00a300;fill-opacity:1;fill-rule:evenodd;stroke:none"
               id="path4346"
               inkscape:connector-curvature="0" />
            <path
               d="m 430.988,171.5743 c -0.5561,-1.3898 -1.5298,-2.1379 -0.0615,-2.8582 3.9969,-1.9573 7.3973,-3.5152 8.263,-8.7205 0,-5.0062 -4.9428,-6.0052 -8.6834,-6.7547 l -2.484,-0.4586 c 0.6018,8.7911 -0.049,25.1124 1.0361,34.7122 l 0.003,1.0199 c 9.5261,-1.3255 15.4239,-10.2036 1.927,-16.9401 z m -12.0603,16.8848 3.377,0 0,-36.1834 -3.377,0 0,-2.4114 c 6.3074,0 12.3112,-0.0808 18.3317,1.9298 3.2088,1.067 6.656,3.1763 8.202,6.2717 3.0924,6.1773 -4.7766,11.048 -8.202,14.4731 7.8455,3.9175 12.903,12.3767 1.9301,17.8504 l -1.4468,0.4818 -18.815,0 0,-2.412 z"
               style="fill:#00a300;fill-opacity:1;fill-rule:evenodd;stroke:none"
               id="path4348"
               inkscape:connector-curvature="0" />
            <path
               d="m 483.5673,153.6917 c -4.6621,-1.054 -7.3584,8.8738 -1.9224,11.6107 7.6742,0 8.3449,-10.1577 1.9224,-11.6107 z m -7.7108,20.7773 0,-0.9646 5.3067,0.4813 c 5.5217,4.419 6.1427,-2.9134 6.7411,-7.3043 -15.6274,5.8618 -22.6485,-16.816 -4.3293,-16.8171 2.1903,0.0992 3.2312,1.5004 3.8599,3.3766 l 0.4813,-3.3766 c 2.5733,0.1607 5.1466,0.3215 7.7205,0.4816 0.4906,0.6438 0.4906,1.2872 0,1.9298 l -1.9299,0.4834 c -0.6463,6.1732 1.2958,17.4084 -1.9494,22.634 -3.5557,5.7263 -11.9508,3.9359 -15.9009,-0.9241"
               style="fill:#00a300;fill-opacity:1;fill-rule:evenodd;stroke:none"
               id="path4350"
               inkscape:connector-curvature="0" />
            <path
               d="m 499.4949,169.1623 c -2.4627,-12.3463 8.676,-26.085 19.2985,-15.438 0.493,0.7412 0.493,1.3847 0,1.9281 l -5.3067,-1.4465 c -4.3367,0 -6.7584,4.82 -7.3216,8.4588 -0.7824,5.0553 0.4263,16.7468 8.7695,8.4277 1.6988,0 4.3422,0.7282 4.3422,2.8933 -6.2218,7.5918 -16.5487,4.6766 -19.7819,-4.8234"
               style="fill:#00a300;fill-opacity:1;fill-rule:evenodd;stroke:none"
               id="path4352"
               inkscape:connector-curvature="0" />
          </g>
          <g
             style="fill:#00a300;fill-opacity:1"
             id="g4354">
            <path
               d="m 572.9128,171.6613 -0.8447,-0.5632 -0.2821,-0.2815 0,-1.1268 0.2821,-0.282 0.2814,-0.2812 c 14.563,-7.2938 8.3696,-12.5014 -2.5557,-16.0549 l 0.3028,5.0698 0.2814,18.0269 6e-4,12.422 2.8162,-0.311 c 10.3434,-2.063 6.1804,-13.3832 -0.282,-16.6181 z m -12.1119,18.8717 0,-1.9715 3.6825,0 -0.3019,-35.7718 -3.3806,0 0,-1.9715 8.7324,0 c 8.2318,0.8215 32.3238,9.7191 10.1401,20.8431 l -0.282,0.2821 -0.5633,0.2815 -0.5635,0.2811 0.282,0.2821 0.5627,0.2815 0.5641,0.282 c 10.7598,5.3762 7.3644,15.5928 -1.972,17.4634 l -16.9005,-0.282 z"
               style="fill:#00a300;fill-opacity:1;fill-rule:evenodd;stroke:none"
               id="path4356"
               inkscape:connector-curvature="0" />
            <path
               d="m 618.2614,177.8579 -0.2811,-1.408 3.3794,-1.4083 -0.5632,-24.5055 5.915,0.8448 c 0.1559,7.1651 -3.6448,22.2519 6.4789,22.2519 8.5411,-2.1852 3.3712,-16.0617 2.5347,-21.4067 l 0,-1.4079 8.4501,0 1.1268,1.9715 -3.9804,0.004 c 1.4128,6.2197 5.4099,21.3298 -3.2168,24.639 -4.1043,1.5738 -7.5319,0.0618 -10.5477,-2.954 l -0.282,-0.2821 -0.2812,3.9436 -8.7325,-0.282 z"
               style="fill:#00a300;fill-opacity:1;fill-rule:evenodd;stroke:none"
               id="path4358"
               inkscape:connector-curvature="0" />
            <path
               d="m 590.4034,176.0244 c 1.025,0.0938 2.9392,-0.7755 3.0713,-0.7013 l 0,-10.9066 c 0,-3.2451 -0.4688,-6.2416 1.1347,-9.1751 3.2415,-5.9276 10.2963,-5.9826 14.0752,-0.1982 l 0,-3.9438 5.368,-0.0842 c 0.362,8.8954 0.5473,17.9376 0.5473,26.8427 -1.9717,0 -3.9435,0 -5.9153,0 0,-5.2263 2.8587,-21.7279 -4.7823,-22.2302 -8.898,-0.5865 -4.7937,17.8818 -4.7937,22.2302 -2.5353,0 -5.0703,0 -7.6054,0 0.1769,-0.4964 -0.5884,-1.1075 -1.0998,-1.8335"
               style="fill:#00a300;fill-opacity:1;fill-rule:evenodd;stroke:none"
               id="path4360"
               inkscape:connector-curvature="0" />
            <path
               d="m 684.1721,166.0283 c 3.1178,-0.7804 3.9441,-2.8658 3.9441,-5.7353 0,-6.1943 -6.8392,-8.8756 -8.7324,-1.3068 0,3.2958 0.5448,7.0421 4.7883,7.0421 z m -7.0419,8.4501 c -0.3668,-2.1243 4.474,-1.8238 4.7883,0 1.9772,1.9698 4.593,2.4846 6.2561,-0.8456 l 0.5491,-6.802 c -2.4934,1.4683 -6.0903,1.5009 -8.7767,0.6055 -3.9347,-1.9701 -6.0341,-5.7813 -5.8073,-9.3648 0.4479,-7.0716 10.4791,-10.8559 13.9765,-3.8739 l 0.2809,-3.3794 c 2.7096,0 5.4601,0.3821 8.1692,0.5627 l 0,1.1267 -2.8174,0.5633 -0.2809,20.2807 c -1.8808,7.5155 -12.2842,5.1801 -16.3378,1.1268"
               style="fill:#00a300;fill-opacity:1;fill-rule:evenodd;stroke:none"
               id="path4362"
               inkscape:connector-curvature="0" />
            <path
               d="m 699.9454,191.3786 -0.8447,-1.4089 2.535,-0.5635 0.2824,-0.8447 c 0,-11.9461 -0.5644,-23.8366 -0.5644,-35.7718 0.4226,-1.2668 1.1106,-2.5359 2.5359,-2.5359 1.6761,1.6824 4.3713,2.609 6.4786,3.6626 0.187,0.0939 0.3747,0.1877 0.5624,0.2812 0,0.3756 0,0.7512 0,1.1268 -0.0939,0.1879 -0.1877,0.3759 -0.281,0.5635 -2.1169,-0.7041 -3.2286,-1.0981 -3.9441,1.408 0,9.6851 0.3073,19.3442 0.8459,29.012 l 0.2809,5.9154 c -2.109,0.7018 -5.6696,-0.4762 -7.8869,-0.8447"
               style="fill:#00a300;fill-opacity:1;fill-rule:evenodd;stroke:none"
               id="path4364"
               inkscape:connector-curvature="0" />
            <path
               d="m 737.9714,177.2946 -0.5638,-1.1262 c 3.9112,-7.8219 8.1408,-16.9965 9.5771,-25.6323 1.669,0 3.1677,0.159 4.7886,0.5633 l 0.2809,0.2815 c 1.2642,6.3167 4.5062,11.2543 6.4788,17.1822 0.9746,0 5.7629,-15.7264 6.1963,-17.4637 l 5.0709,-0.2812 c 1.9545,5.8632 7.5648,20.5214 11.8295,24.7861 l 0,0.5641 c -0.7347,0.7353 -2.1515,1.2169 -3.0982,1.6895 l -0.5633,0.282 -0.2812,0 c -4.371,-4.3662 -7.0356,-12.9277 -9.0136,-18.8716 l 0,-0.8456 -0.5635,0 0,1.127 -0.2812,0.5633 c -1.7079,5.1148 -4.2885,9.8835 -5.3518,15.2101 l -0.2821,1.1268 -4.7888,-0.8456 -0.563,0 c -0.8441,-0.843 -5.9281,-18.5709 -7.0412,-16.336 -1.4888,5.9411 -4.142,11.5024 -5.6342,17.4628 l -0.5635,1.6903 -5.6327,-1.1268 z"
               style="fill:#00a300;fill-opacity:1;fill-rule:evenodd;stroke:none"
               id="path4366"
               inkscape:connector-curvature="0" />
            <path
               d="m 728.3942,154.7612 -1.1259,-0.8448 c -8.2593,0 -9.3906,15.3808 -4.7894,19.9985 8.79,5.8501 10.3017,-15.4406 5.9153,-19.1537 z m -2.8159,-4.2251 c 11.8585,3.168 17.841,21.5105 3.943,27.6038 -15.0534,2.0718 -24.5248,-26.9416 -3.943,-27.6038"
               style="fill:#00a300;fill-opacity:1;fill-rule:evenodd;stroke:none"
               id="path4368"
               inkscape:connector-curvature="0" />
            <path
               d="m 786.1371,175.6043 c -8.2049,-8.1663 9.923,-14.9389 8.4501,-20.8431 -2.1855,-2.1855 -6.2663,0.3529 -7.8869,1.9715 l -0.282,0.282 -0.2812,0 -0.2823,-0.282 c -1.1869,-0.5922 -2.3964,-1.8332 -3.3795,-2.8163 l -0.282,-0.8455 c 5.2279,-5.2095 15.4173,-2.5509 17.1822,4.5073 0,5.5316 -12.0878,10.6453 -12.081,14.8655 0.004,4.1955 6.8462,0.2296 8.1374,-1.0644 l 0.2821,-0.2812 c 1.3424,0.335 5.2749,2.6115 3.6615,4.225 -3.1607,3.149 -10.0021,3.5294 -13.2384,0.2812"
               style="fill:#00a300;fill-opacity:1;fill-rule:evenodd;stroke:none"
               id="path4370"
               inkscape:connector-curvature="0" />
            <path
               d="m 655.4424,174.1963 c 5.955,0 9.28,-1.489 10.1738,-6.4508 0.5323,-2.9607 -0.1307,-5.3413 -1.8102,-7.5418 -1.0667,-1.3975 -1.3263,-1.637 -3.0728,-1.3468 -8.0291,1.3366 -5.5179,10.9599 -5.2908,15.3394 z m -0.8456,-17.1816 0,-0.282 c -7.0625,-3.9272 -3.3208,-9.6968 3.6626,-6.7601 3.5357,0.7061 6.5313,0.3209 7.5308,-2.613 0.703,-2.0656 0.1911,-3.4089 -1.3206,-4.9422 -4.002,-4.0595 -9.4187,1.2994 -10.154,3.6114 -1.7263,0.576 -3.9305,-0.8397 -5.6333,-1.408 3.7837,-7.2638 15.9707,-7.5824 20.7445,-2.3457 2.289,2.5115 2.6252,7.3225 0.3209,9.9451 -1.7249,1.9641 -3.4316,1.8144 -5.7008,1.127 -2.3652,-0.7166 -5.0218,-1.8292 -6.8848,-1.6157 -1.3033,0.1488 -3.3786,2.0511 -1.7197,3.0297 l 7.3233,1.6903 c 7.5441,2.5106 11.4281,12.7882 5.3521,18.8716 1.3422,0.4694 2.6847,0.9389 4.0271,1.408 0.6605,0.3759 0.7546,0.7515 0.2824,1.1268 -4.1599,-0.135 -10.3652,1.0681 -14.5109,-0.4921 -5.5289,-2.0812 -7.8015,-5.442 -8.3279,-10.046 -0.4994,-4.3753 0.9213,-8.2627 5.0083,-10.3051"
               style="fill:#00a300;fill-opacity:1;fill-rule:evenodd;stroke:none"
               id="path4372"
               inkscape:connector-curvature="0" />
          </g>
        </g>
      </g>
      <g
         id="g4335"
         transform="matrix(1.0028844,0,0,0.84281157,5.4758007,47.223723)">
        <path
           d="m 187.47508,304.42035 c 21.3451,62.4141 62.5612,59.4825 113.5443,35.6701 32.8719,-15.3542 68.8606,-12.5986 122.6069,40.3035"
           style="fill:none;stroke:#ff6600;stroke-width:11.99989986;stroke-linecap:round;stroke-linejoin:round;stroke-miterlimit:2.61312604;stroke-dasharray:none;stroke-opacity:1"
           id="path4374"
           inkscape:connector-curvature="0" />
        <path
           inkscape:connector-curvature="0"
           id="path4380"
           style="fill:#ffff00;fill-opacity:1;fill-rule:evenodd;stroke:none"
           d="m 358.25618,370.63545 c 13.5267,15.319 25.653,20.1472 36.8275,17.8013 -12.0209,-14.6634 -24.2975,-20.5957 -36.8275,-17.8013" />
        <path
           inkscape:connector-curvature="0"
           id="path4382"
           style="fill:#ffff00;fill-opacity:1;fill-rule:evenodd;stroke:none"
           d="m 251.82628,379.77775 c -20.1821,-7.2559 -34.302,-4.974 -44.2814,3.8335 18.4043,7.4835 33.1648,6.2037 44.2814,-3.8335" />
        <path
           inkscape:connector-curvature="0"
           id="path4384"
           style="fill:#ffff00;fill-opacity:1;fill-rule:evenodd;stroke:none"
           d="m 266.71588,395.44625 c -20.6549,5.7739 -30.8441,15.8119 -33.8783,28.7713 19.3374,-4.5584 30.6292,-14.1505 33.8783,-28.7713" />
        <path
           inkscape:connector-curvature="0"
           id="path4386"
           style="fill:#ffff00;fill-opacity:1;fill-rule:evenodd;stroke:none"
           d="m 293.00208,404.29545 c -12.5481,14.9025 -14.2551,27.0703 -8.547,37.3725 12.276,-13.3843 15.1231,-25.8426 8.547,-37.3725" />
        <path
           inkscape:connector-curvature="0"
           id="path4388"
           style="fill:#ffff00;fill-opacity:1;fill-rule:evenodd;stroke:none"
           d="m 320.70798,399.52895 c -6.7533,22.0757 -4.2347,36.6032 4.6281,45.9746 7.0118,-20.2391 5.4672,-35.5635 -4.6281,-45.9746" />
        <path
           inkscape:connector-curvature="0"
           id="path4390"
           style="fill:#ffff00;fill-opacity:1;fill-rule:evenodd;stroke:none"
           d="m 341.83148,390.70245 c 8.3483,18.6531 18.4855,26.875 29.8513,27.9646 -7.1064,-17.5788 -17.0583,-26.8991 -29.8513,-27.9646" />
      </g>
      <g
         transform="matrix(0.5154665,0,0,-0.5154665,848.01488,334.46934)"
         id="g4148">
        <circle
           style="fill:#ff6600;fill-opacity:1;stroke:#f7941e;stroke-width:0.25"
           id="circle3"
           r="184.946"
           cy="192.203"
           cx="189.97701" />
        <circle
           style="fill:#ffffff"
           id="circle5"
           r="153.396"
           cy="171.634"
           cx="178.382" />
        <g
           id="g7">
          <path
             style="fill:#008457"
             inkscape:connector-curvature="0"
             id="path9"
             d="m 98.8,195.638 0,-8.949 41.966,0 c -1.755,-12.533 -5.468,-27.665 -8.393,-39.302 -11.112,12.231 -23.077,14.683 -34.966,17.48 8.558,-2.012 19.277,-15.831 23.078,-26.572 -6.141,2.087 -18.576,3.894 -24.423,4.789 4.97,-9.251 9.648,-22.081 12.865,-36.105 3.803,-16.108 9.357,-31.327 8.773,-66.836 l 0.584,0 c 0,16.413 10.526,42.073 14.035,49.831 3.509,7.758 8.482,17.304 20.763,29.539 -8.189,-0.599 -13.452,-1.196 -18.131,-2.385 2.047,9.844 13.94,23.002 23.297,31.656 l -20.081,-5.402 12.393,43.307 13.295,0 0,-72.209 -11.697,0 51.754,-65.046 51.758,65.046 -11.699,0 0,72.208 12.869,0 0,8.949 -158.04,0 z m 91.372,-8.95 27.482,0 0,-47.442 -27.482,0 0,47.442 z" />
          <path
             style="fill:#008457"
             inkscape:connector-curvature="0"
             id="path11"
             d="m 104.942,269.706 5.211,0 6.305,17.312 -5.528,0 -0.727,-2.477 -5.503,0 -0.775,2.477 -5.36,0 6.377,-17.312 z m 4.194,11.128 -1.552,-5.336 -0.047,0 -1.673,5.336 3.272,0 z" />
          <path
             style="fill:#008457"
             inkscape:connector-curvature="0"
             id="path13"
             d="m 135.05,280.324 c 0,4.799 -2.593,7.104 -7.879,7.104 -5.285,0 -7.902,-2.305 -7.902,-7.104 l 0,-10.619 5.333,0 0,9.431 c 0,1.771 0,3.977 2.594,3.977 2.522,0 2.522,-2.205 2.522,-3.977 l 0,-9.431 5.332,0 0,10.619 z" />
          <path
             style="fill:#008457"
             inkscape:connector-curvature="0"
             id="path15"
             d="m 143.674,281.197 c 0,0.439 0.072,0.824 0.193,1.139 0.389,1.043 1.553,1.262 2.547,1.262 0.871,0 2.207,-0.289 2.207,-1.576 0,-0.896 -0.754,-1.139 -3.734,-1.988 -2.74,-0.775 -5.868,-1.525 -5.868,-5.02 0,-4 3.418,-5.718 6.983,-5.718 3.758,0 7.08,1.426 7.227,5.65 l -5.045,0 c 0.098,-0.656 -0.193,-1.094 -0.631,-1.387 -0.436,-0.316 -1.043,-0.435 -1.574,-0.435 -0.729,0 -1.916,0.193 -1.916,1.166 0.098,1.236 2.57,1.504 5.02,2.182 2.449,0.676 4.873,1.816 4.873,4.994 0,4.508 -4.148,5.963 -8.002,5.963 -1.965,0 -7.563,-0.703 -7.613,-6.23 l 5.333,0 z" />
          <path
             style="fill:#008457"
             inkscape:connector-curvature="0"
             id="path17"
             d="m 161.348,274.143 -4.85,0 0,-4.437 15.033,0 0,4.437 -4.852,0 0,12.875 -5.332,0 0,-12.875 z" />
          <path
             style="fill:#008457"
             inkscape:connector-curvature="0"
             id="path19"
             d="m 175.19,269.706 10.156,0 c 3.031,0 5.648,1.672 5.648,4.945 0,1.795 -0.822,3.684 -2.592,4.34 1.453,0.559 2.354,2.156 2.545,4.318 0.072,0.846 0.096,2.908 0.582,3.709 l -5.332,0 c -0.268,-0.873 -0.363,-1.771 -0.438,-2.67 -0.146,-1.648 -0.291,-3.367 -2.398,-3.367 l -2.84,0 0,6.037 -5.332,0 0,-17.312 z m 5.332,7.562 2.787,0 c 0.994,0 2.355,-0.168 2.355,-1.717 0,-1.096 -0.607,-1.725 -2.645,-1.725 l -2.498,0 0,3.442 z" />
          <path
             style="fill:#008457"
             inkscape:connector-curvature="0"
             id="path21"
             d="m 199.649,269.706 5.211,0 6.305,17.312 -5.529,0 -0.723,-2.477 -5.506,0 -0.775,2.477 -5.359,0 6.376,-17.312 z m 4.197,11.128 -1.553,-5.336 -0.051,0 -1.67,5.336 3.274,0 z" />
          <path
             style="fill:#008457"
             inkscape:connector-curvature="0"
             id="path23"
             d="m 214.049,269.706 5.33,0 0,12.873 7.662,0 0,4.439 -12.992,0 0,-17.312 z" />
          <path
             style="fill:#008457"
             inkscape:connector-curvature="0"
             id="path25"
             d="m 231.012,269.706 5.336,0 0,17.312 -5.336,0 0,-17.312 z" />
          <path
             style="fill:#008457"
             inkscape:connector-curvature="0"
             id="path27"
             d="m 245.581,269.706 5.209,0 6.305,17.312 -5.529,0 -0.723,-2.477 -5.506,0 -0.775,2.477 -5.355,0 6.374,-17.312 z m 4.193,11.128 -1.551,-5.336 -0.051,0 -1.672,5.336 3.274,0 z" />
          <path
             style="fill:#008457"
             inkscape:connector-curvature="0"
             id="path29"
             d="m 116.636,240.357 -18.724,-33.645 18.126,0 8.875,19.622 9.252,-19.622 17.977,0 -19.096,33.645 0,19.616 -16.411,0 0,-19.616 z" />
          <path
             style="fill:#008457"
             inkscape:connector-curvature="0"
             id="path31"
             d="m 152.663,206.713 16.412,0 0,18.499 15.367,0 0,-18.499 16.41,0 0,53.261 -16.41,0 0,-21.107 -15.367,0 0,21.107 -16.412,0 0,-53.261 z" />
          <path
             style="fill:#008457"
             inkscape:connector-curvature="0"
             id="path33"
             d="m 222.545,206.713 16.037,0 19.393,53.261 -17.008,0 -2.236,-7.607 -16.934,0 -2.385,7.607 -16.488,0 19.621,-53.261 z m 12.905,34.241 -4.777,-16.41 -0.148,0 -5.145,16.41 10.07,0 z" />
        </g>
      </g>
    </g>
  </g>
</svg>
