<?xml version="1.0" encoding="UTF-8" standalone="no"?>
<!-- Generator: Adobe Illustrator 15.0.2, SVG Export Plug-In . SVG Version: 6.00 Build 0)  -->

<svg
   xmlns:dc="http://purl.org/dc/elements/1.1/"
   xmlns:cc="http://creativecommons.org/ns#"
   xmlns:rdf="http://www.w3.org/1999/02/22-rdf-syntax-ns#"
   xmlns:svg="http://www.w3.org/2000/svg"
   xmlns="http://www.w3.org/2000/svg"
   xmlns:sodipodi="http://sodipodi.sourceforge.net/DTD/sodipodi-0.dtd"
   xmlns:inkscape="http://www.inkscape.org/namespaces/inkscape"
   version="1.1"
   id="Layer_1"
   x="0px"
   y="0px"
   width="379.279px"
   height="381.081px"
   viewBox="0 0 379.279 381.081"
   enable-background="new 0 0 379.279 381.081"
   xml:space="preserve"
   inkscape:version="0.91 r13725"
   sodipodi:docname="YHA-australia-logo.svg"><metadata
     id="metadata39"><rdf:RDF><cc:Work
         rdf:about=""><dc:format>image/svg+xml</dc:format><dc:type
           rdf:resource="http://purl.org/dc/dcmitype/StillImage" /></cc:Work></rdf:RDF></metadata><defs
     id="defs37" /><sodipodi:namedview
     pagecolor="#ffffff"
     bordercolor="#666666"
     borderopacity="1"
     objecttolerance="10"
     gridtolerance="10"
     guidetolerance="10"
     inkscape:pageopacity="0"
     inkscape:pageshadow="2"
     inkscape:window-width="1266"
     inkscape:window-height="663"
     id="namedview35"
     showgrid="false"
     inkscape:zoom="0.61929092"
     inkscape:cx="189.6395"
     inkscape:cy="190.5405"
     inkscape:window-x="0"
     inkscape:window-y="0"
     inkscape:window-maximized="0"
     inkscape:current-layer="Layer_1" /><circle
     fill="#F7941E"
     stroke="#F7941E"
     stroke-width="0.25"
     cx="189.977"
     cy="192.203"
     r="184.946"
     id="circle3"
     style="fill:#ff6600;fill-opacity:1" /><circle
     fill="#FFFFFF"
     cx="178.382"
     cy="171.634"
     r="153.396"
     id="circle5" /><g
     id="g7"><path
       fill="#008457"
       d="M98.8,195.638v-8.949h41.966c-1.755-12.533-5.468-27.665-8.393-39.302   c-11.112,12.231-23.077,14.683-34.966,17.48c8.558-2.012,19.277-15.831,23.078-26.572c-6.141,2.087-18.576,3.894-24.423,4.789   c4.97-9.251,9.648-22.081,12.865-36.105c3.803-16.108,9.357-31.327,8.773-66.836h0.584c0,16.413,10.526,42.073,14.035,49.831   s8.482,17.304,20.763,29.539c-8.189-0.599-13.452-1.196-18.131-2.385c2.047,9.844,13.94,23.002,23.297,31.656l-20.081-5.402   l12.393,43.307h13.295V114.48h-11.697l51.754-65.046l51.758,65.046h-11.699v72.208h12.869v8.949H98.8z M190.172,186.688h27.482   v-47.442h-27.482V186.688z"
       id="path9" /><path
       fill="#008457"
       d="M104.942,269.706h5.211l6.305,17.312h-5.528l-0.727-2.477h-5.503l-0.775,2.477h-5.36L104.942,269.706z    M109.136,280.834l-1.552-5.336h-0.047l-1.673,5.336H109.136z"
       id="path11" /><path
       fill="#008457"
       d="M135.05,280.324c0,4.799-2.593,7.104-7.879,7.104c-5.285,0-7.902-2.305-7.902-7.104v-10.619h5.333v9.431   c0,1.771,0,3.977,2.594,3.977c2.522,0,2.522-2.205,2.522-3.977v-9.431h5.332V280.324z"
       id="path13" /><path
       fill="#008457"
       d="M143.674,281.197c0,0.439,0.072,0.824,0.193,1.139c0.389,1.043,1.553,1.262,2.547,1.262   c0.871,0,2.207-0.289,2.207-1.576c0-0.896-0.754-1.139-3.734-1.988c-2.74-0.775-5.868-1.525-5.868-5.02   c0-4,3.418-5.718,6.983-5.718c3.758,0,7.08,1.426,7.227,5.65h-5.045c0.098-0.656-0.193-1.094-0.631-1.387   c-0.436-0.316-1.043-0.435-1.574-0.435c-0.729,0-1.916,0.193-1.916,1.166c0.098,1.236,2.57,1.504,5.02,2.182   c2.449,0.676,4.873,1.816,4.873,4.994c0,4.508-4.148,5.963-8.002,5.963c-1.965,0-7.563-0.703-7.613-6.23H143.674z"
       id="path15" /><path
       fill="#008457"
       d="M161.348,274.143h-4.85v-4.437h15.033v4.437h-4.852v12.875h-5.332V274.143z"
       id="path17" /><path
       fill="#008457"
       d="M175.19,269.706h10.156c3.031,0,5.648,1.672,5.648,4.945c0,1.795-0.822,3.684-2.592,4.34   c1.453,0.559,2.354,2.156,2.545,4.318c0.072,0.846,0.096,2.908,0.582,3.709h-5.332c-0.268-0.873-0.363-1.771-0.438-2.67   c-0.146-1.648-0.291-3.367-2.398-3.367h-2.84v6.037h-5.332V269.706z M180.522,277.268h2.787c0.994,0,2.355-0.168,2.355-1.717   c0-1.096-0.607-1.725-2.645-1.725h-2.498V277.268z"
       id="path19" /><path
       fill="#008457"
       d="M199.649,269.706h5.211l6.305,17.312h-5.529l-0.723-2.477h-5.506l-0.775,2.477h-5.359L199.649,269.706z    M203.846,280.834l-1.553-5.336h-0.051l-1.67,5.336H203.846z"
       id="path21" /><path
       fill="#008457"
       d="M214.049,269.706h5.33v12.873h7.662v4.439h-12.992V269.706z"
       id="path23" /><path
       fill="#008457"
       d="M231.012,269.706h5.336v17.312h-5.336V269.706z"
       id="path25" /><path
       fill="#008457"
       d="M245.581,269.706h5.209l6.305,17.312h-5.529l-0.723-2.477h-5.506l-0.775,2.477h-5.355L245.581,269.706z    M249.774,280.834l-1.551-5.336h-0.051l-1.672,5.336H249.774z"
       id="path27" /><path
       fill="#008457"
       d="M116.636,240.357l-18.724-33.645h18.126l8.875,19.622l9.252-19.622h17.977l-19.096,33.645v19.616h-16.411   V240.357z"
       id="path29" /><path
       fill="#008457"
       d="M152.663,206.713h16.412v18.499h15.367v-18.499h16.41v53.261h-16.41v-21.107h-15.367v21.107h-16.412   V206.713z"
       id="path31" /><path
       fill="#008457"
       d="M222.545,206.713h16.037l19.393,53.261h-17.008l-2.236-7.607h-16.934l-2.385,7.607h-16.488L222.545,206.713   z M235.45,240.954l-4.777-16.41h-0.148l-5.145,16.41H235.45z"
       id="path33" /></g></svg>